<svg xmlns="http://www.w3.org/2000/svg" xmlns:xlink="http://www.w3.org/1999/xlink" width="187.5" height="75.75" viewBox="0 0 250 101">
  <defs>
    <style>
      .cls-1 {
        fill: #167e78;
        filter: url(#filter);
      }

      .cls-1, .cls-2 {
        fill-rule: evenodd;
      }

      .cls-2 {
        fill: #03b0ae;
        filter: url(#filter-2);
      }
    </style>
    <filter id="filter" x="1" y="17" width="247" height="75" filterUnits="userSpaceOnUse">
      <feGaussianBlur result="blur" stdDeviation="1.333" in="SourceAlpha"/>
      <feComposite result="composite"/>
      <feComposite result="composite-2"/>
      <feComposite result="composite-3"/>
      <feFlood result="flood" flood-color="#136c67" flood-opacity="0.43"/>
      <feComposite result="composite-4" operator="in" in2="composite-3"/>
      <feBlend result="blend" in2="SourceGraphic"/>
      <feBlend result="blend-2" in="SourceGraphic"/>
    </filter>
    <filter id="filter-2" x="8" y="5" width="235" height="86" filterUnits="userSpaceOnUse">
      <feOffset result="offset" dy="6" in="SourceAlpha"/>
      <feGaussianBlur result="blur" stdDeviation="2.646"/>
      <feFlood result="flood"/>
      <feComposite result="composite" operator="in" in2="blur"/>
      <feGaussianBlur result="blur-2" stdDeviation="2" in="SourceAlpha"/>
      <feComposite result="composite-2"/>
      <feComposite result="composite-3"/>
      <feComposite result="composite-4"/>
      <feFlood result="flood-2" flood-color="#136c67"/>
      <feComposite result="composite-5" operator="in" in2="composite-4"/>
      <feBlend result="blend" in2="composite"/>
      <feBlend result="blend-2" in="SourceGraphic"/>
    </filter>
  </defs>
  <path id="Rounded_Rectangle_1" data-name="Rounded Rectangle 1" class="cls-1" d="M38.088,20.782H210.57a33.322,33.322,0,1,1,0,66.644H38.088A33.322,33.322,0,0,1,38.088,20.782Z"/>
  <path id="costlio_" data-name="costlio " class="cls-2" d="M39.05,77.335c-13.4,0-23.569-10.731-23.569-24.978S25.648,27.38,39.05,27.38a22.7,22.7,0,0,1,19.04,9.806,2.95,2.95,0,1,1-4.806,3.423,16.955,16.955,0,0,0-14.234-7.4c-10.075,0-17.746,8.233-17.746,19.15,0,10.824,7.671,19.057,17.746,19.057a16.872,16.872,0,0,0,14.234-7.308,2.924,2.924,0,1,1,4.806,3.33A22.784,22.784,0,0,1,39.05,77.335Zm44.75,0a24.978,24.978,0,1,1,24.955-24.978A24.98,24.98,0,0,1,83.8,77.335Zm0-44.127a19.1,19.1,0,1,0,19.04,19.15A19.1,19.1,0,0,0,83.8,33.208Zm41.148,44.127c-6.84,0-12.57-3.238-14.974-8.511a3.089,3.089,0,0,1,1.479-3.978,2.947,2.947,0,0,1,3.882,1.48c1.109,2.5,4.252,5.088,9.613,5.088,6.747,0,10.351-4.348,10.351-8.511,0-5.458-3.327-6.846-11-8.788-6.47-1.665-14.6-3.7-14.6-13.229a13.209,13.209,0,0,1,3.975-9.251,15.661,15.661,0,0,1,11.276-4.256c6.377,0,11.645,2.96,13.956,7.863a2.838,2.838,0,0,1-1.386,3.885,2.964,2.964,0,0,1-3.975-1.388c-1.016-2.128-3.789-4.533-8.6-4.533-6.84,0-9.336,4.718-9.336,7.678,0,4.533,2.958,5.736,10.167,7.493,6.47,1.665,15.436,3.885,15.436,14.524a14.205,14.205,0,0,1-4.252,9.9A16.77,16.77,0,0,1,124.948,77.335Zm40.677-8.326a2.939,2.939,0,0,1,.37,4.163A11.99,11.99,0,0,1,144.922,65.4V33.208h-2.681a2.914,2.914,0,0,1,0-5.828h2.681V17.944a2.979,2.979,0,0,1,2.957-2.96,2.921,2.921,0,0,1,2.958,2.96V27.38h10.444a2.914,2.914,0,1,1,0,5.828H150.837V65.4a6.078,6.078,0,0,0,6.1,6.013,5.738,5.738,0,0,0,4.529-2.128A2.937,2.937,0,0,1,165.625,69.009ZM171,12.023a2.921,2.921,0,0,0-2.958,2.96V74.375a2.958,2.958,0,1,0,5.915,0V14.984A2.92,2.92,0,0,0,171,12.023Zm8.967,4.348a3.2,3.2,0,0,1,3.235,3.145,3.14,3.14,0,0,1-3.235,3.145,3.2,3.2,0,0,1-3.235-3.145A3.259,3.259,0,0,1,179.963,16.371Zm0,60.964a2.979,2.979,0,0,1-2.958-2.96V30.248a2.962,2.962,0,0,1,2.958-2.868,2.9,2.9,0,0,1,2.957,2.868V74.375A2.921,2.921,0,0,1,179.963,77.335Zm29.579,0A24.978,24.978,0,1,1,234.5,52.358,24.98,24.98,0,0,1,209.542,77.335Zm0-44.127a19.1,19.1,0,1,0,19.04,19.15A19.1,19.1,0,0,0,209.542,33.208Z"/>
</svg>
